<?xml version="1.0" standalone="no"?>
<!DOCTYPE svg PUBLIC "-//W3C//DTD SVG 20010904//EN"
 "http://www.w3.org/TR/2001/REC-SVG-20010904/DTD/svg10.dtd">
<svg version="1.0" xmlns="http://www.w3.org/2000/svg"
 width="1280.000000pt" height="810.000000pt" viewBox="0 0 1280.000000 810.000000"
 preserveAspectRatio="xMidYMid meet">
<g transform="translate(0.000000,810.000000) scale(0.100000,-0.100000)"
fill="#000000" stroke="none">
<path d="M4825 7544 c-33 -7 -77 -13 -98 -13 -26 -1 -45 -8 -60 -24 -26 -28
-100 -42 -117 -22 -12 15 -44 9 -205 -35 -60 -17 -144 -39 -185 -50 -78 -20
-308 -95 -395 -130 -27 -11 -93 -35 -145 -54 -234 -84 -359 -131 -405 -151
-27 -13 -104 -44 -170 -70 -194 -77 -471 -215 -604 -301 -68 -43 -137 -87
-154 -97 -159 -95 -552 -470 -609 -582 -12 -22 -31 -53 -43 -70 -107 -144
-246 -549 -314 -910 -39 -212 -111 -697 -156 -1055 -22 -170 -128 -817 -160
-970 -69 -339 -74 -358 -160 -685 -39 -150 -83 -288 -135 -425 -17 -47 -40
-110 -50 -140 -10 -30 -47 -117 -83 -192 -36 -76 -64 -138 -61 -138 2 0 16 19
31 43 15 23 41 60 59 82 30 40 95 143 190 305 247 419 468 1087 618 1865 14
72 30 153 36 180 13 69 55 312 71 412 7 46 16 88 20 94 17 27 26 -8 32 -118
14 -277 99 -758 203 -1153 20 -74 44 -173 54 -220 10 -47 34 -157 54 -245 69
-318 79 -398 73 -616 -6 -202 -14 -278 -52 -539 -13 -92 -21 -178 -18 -212 5
-50 3 -58 -16 -70 -11 -7 -21 -20 -21 -29 0 -8 -25 -114 -56 -235 -31 -120
-67 -262 -80 -314 -12 -52 -32 -129 -43 -170 -26 -94 -26 -121 -1 -153 80
-102 346 -156 710 -144 196 7 270 17 326 43 54 26 84 105 50 133 -8 7 -37 48
-66 91 -61 93 -72 145 -45 212 9 24 27 54 40 68 35 38 121 163 146 212 12 23
40 69 62 102 81 119 182 364 237 571 18 66 36 124 40 129 15 15 29 -30 51
-155 11 -68 25 -140 31 -159 6 -19 12 -57 13 -85 1 -32 12 -66 28 -95 13 -25
41 -112 61 -195 65 -271 68 -341 21 -429 -74 -139 -41 -206 120 -241 101 -21
270 -33 505 -35 324 -2 472 23 547 95 24 23 43 49 43 58 0 37 -37 105 -112
205 -84 112 -112 159 -122 207 -8 41 -23 217 -41 476 -32 479 -98 877 -194
1174 -44 138 -60 234 -39 237 7 1 121 2 253 2 l240 1 3 23 4 24 23 -22 c23
-22 27 -22 87 -10 83 16 275 79 363 120 39 17 180 85 315 150 273 132 440 203
536 228 83 22 87 17 79 -103 -4 -50 -2 -172 4 -270 23 -369 41 -651 46 -695 2
-25 7 -94 10 -155 3 -60 8 -137 11 -170 3 -33 0 -103 -6 -155 -23 -211 -74
-347 -215 -580 -144 -236 -205 -378 -205 -473 0 -181 242 -303 646 -326 164
-9 305 -1 346 19 72 38 74 90 9 224 -103 212 -104 206 87 611 45 94 94 211
111 260 39 118 76 308 91 475 6 74 18 170 25 212 12 67 12 82 0 105 -19 36
-19 63 0 63 16 0 57 -82 192 -380 36 -80 69 -149 73 -155 8 -10 40 -91 138
-350 52 -134 121 -330 142 -400 7 -22 44 -110 83 -195 91 -199 95 -233 43
-353 -20 -46 -36 -100 -36 -119 0 -83 48 -152 129 -186 92 -39 329 -51 624
-31 237 15 332 52 358 138 19 63 7 79 -228 302 -112 107 -151 186 -163 330 -5
57 -16 172 -25 254 -20 194 -34 291 -91 670 -20 135 -70 435 -89 530 -7 39
-25 133 -39 211 -14 77 -36 194 -50 260 -89 425 -216 1235 -216 1373 0 66 0
67 43 102 23 19 96 74 162 121 l121 86 89 -24 c50 -13 163 -40 252 -59 172
-38 281 -72 378 -121 58 -30 62 -34 122 -143 92 -167 187 -314 266 -416 79
-100 84 -105 105 -98 16 7 32 -13 32 -42 0 -21 91 -116 165 -172 113 -86 269
-139 375 -128 87 8 173 29 177 42 2 5 -13 22 -34 36 -21 14 -60 49 -87 76
l-49 50 29 12 c16 6 37 15 46 20 26 13 48 11 48 -6 0 -25 30 -32 180 -45 346
-29 694 6 940 94 314 114 574 341 705 619 89 188 133 453 93 560 -9 22 -7 31
7 48 18 19 18 24 2 133 -32 212 -85 372 -188 563 -138 257 -343 494 -522 601
-106 63 -145 76 -242 76 -69 1 -88 -3 -138 -28 -133 -65 -217 -164 -203 -239
10 -55 27 -63 92 -43 67 21 136 15 244 -21 90 -31 153 -76 244 -174 114 -124
176 -230 230 -395 38 -116 49 -186 48 -321 -1 -261 -55 -397 -223 -558 -139
-133 -276 -188 -496 -199 -115 -6 -179 6 -280 53 -71 34 -203 154 -257 235
-89 134 -169 310 -237 521 -40 124 -49 155 -94 360 -123 551 -241 965 -307
1075 -19 30 -65 98 -104 150 -81 108 -159 232 -194 305 -78 166 -228 328 -370
399 -117 59 -339 106 -501 106 -175 0 -344 -30 -829 -146 -269 -65 -490 -104
-708 -126 -110 -11 -136 -10 -230 6 -132 22 -316 69 -577 147 -336 101 -626
166 -857 193 -44 5 -48 4 -45 -16 5 -47 -94 -50 -115 -4 -10 23 -14 24 -112
23 -55 0 -128 -6 -161 -13z"/>
</g>
</svg>
